<svg width="512" height="512" viewBox="0 0 512 512" fill="none" xmlns="http://www.w3.org/2000/svg">
<rect width="512" height="512" rx="162" fill="#00A6FF"/>
<circle cx="256" cy="255" r="142.17" stroke="white" stroke-width="25.6591"/>
<path fill-rule="evenodd" clip-rule="evenodd" d="M228.582 38.6147C237.733 37.4971 247.051 36.9221 256.5 36.9221C265.949 36.9221 275.267 37.4971 284.418 38.6147C291.451 39.4736 296.457 45.8715 295.598 52.9048C294.739 59.9382 288.341 64.9435 281.308 64.0846C273.187 63.0928 264.907 62.5812 256.5 62.5812C248.093 62.5812 239.813 63.0928 231.692 64.0846C224.659 64.9435 218.261 59.9382 217.402 52.9048C216.543 45.8715 221.549 39.4736 228.582 38.6147ZM138.871 84.3818C143.118 90.0536 141.963 98.0943 136.291 102.341C122.999 112.294 111.044 123.854 100.73 136.718C96.2979 142.246 88.2234 143.135 82.6953 138.702C77.1672 134.27 76.2789 126.195 80.7112 120.667C92.3841 106.109 105.9 93.0426 120.911 81.8021C126.583 77.5551 134.624 78.7101 138.871 84.3818ZM374.129 84.3818C378.376 78.7101 386.417 77.5551 392.089 81.8021C407.1 93.0427 420.616 106.109 432.289 120.667C436.721 126.196 435.833 134.27 430.305 138.702C424.777 143.135 416.702 142.246 412.27 136.718C401.956 123.854 390.001 112.294 376.709 102.341C371.037 98.0943 369.882 90.0536 374.129 84.3818ZM49.3745 216.426C56.4002 217.345 61.3507 223.786 60.4317 230.811C59.375 238.89 58.8296 247.13 58.8296 255.5C58.8296 263.87 59.375 272.11 60.4317 280.189C61.3507 287.214 56.4002 293.655 49.3745 294.574C42.3487 295.493 35.9083 290.542 34.9893 283.517C33.7887 274.338 33.1704 264.986 33.1704 255.5C33.1704 246.013 33.7887 236.662 34.9893 227.483C35.9083 220.458 42.3488 215.507 49.3745 216.426ZM463.625 216.426C470.651 215.507 477.092 220.458 478.011 227.483C479.211 236.662 479.83 246.013 479.83 255.5C479.83 264.986 479.211 274.338 478.011 283.517C477.092 290.542 470.651 295.493 463.625 294.574C456.6 293.655 451.649 287.214 452.568 280.189C453.625 272.11 454.17 263.87 454.17 255.5C454.17 247.13 453.625 238.89 452.568 230.811C451.649 223.786 456.6 217.345 463.625 216.426ZM82.6953 372.298C88.2234 367.865 96.2979 368.754 100.73 374.282C111.044 387.146 122.999 398.706 136.291 408.659C141.963 412.906 143.118 420.946 138.871 426.618C134.624 432.29 126.583 433.445 120.911 429.198C105.9 417.957 92.384 404.891 80.7112 390.333C76.2789 384.804 77.1672 376.73 82.6953 372.298ZM430.305 372.298C435.833 376.73 436.721 384.804 432.289 390.333C420.616 404.891 407.1 417.957 392.089 429.198C386.417 433.445 378.376 432.29 374.129 426.618C369.882 420.946 371.037 412.906 376.709 408.659C390.001 398.706 401.956 387.146 412.27 374.282C416.702 368.754 424.777 367.865 430.305 372.298ZM217.402 458.095C218.261 451.062 224.659 446.056 231.692 446.915C239.813 447.907 248.093 448.419 256.5 448.419C264.907 448.419 273.187 447.907 281.308 446.915C288.341 446.056 294.739 451.062 295.598 458.095C296.457 465.128 291.451 471.526 284.418 472.385C275.267 473.503 265.949 474.078 256.5 474.078C247.051 474.078 237.733 473.503 228.582 472.385C221.549 471.526 216.543 465.128 217.402 458.095Z" fill="white"/>
<path d="M281.684 400.384V262.109L307.818 235.975" stroke="white" stroke-width="25.6591" stroke-miterlimit="1.50664" stroke-linejoin="round"/>
<path d="M229.891 401.334V263.06L203.756 236.926" stroke="white" stroke-width="25.6591" stroke-miterlimit="1.50664" stroke-linejoin="round"/>
</svg>
